<?xml version="1.0" encoding="UTF-8" standalone="no"?>
<!-- Created with Inkscape (http://www.inkscape.org/) -->

<svg
   width="106.28447mm"
   height="52.926476mm"
   viewBox="0 0 106.28447 52.926476"
   version="1.1"
   id="svg1995"
   inkscape:version="1.2.2 (b0a8486541, 2022-12-01)"
   sodipodi:docname="return.svg"
   xmlns:inkscape="http://www.inkscape.org/namespaces/inkscape"
   xmlns:sodipodi="http://sodipodi.sourceforge.net/DTD/sodipodi-0.dtd"
   xmlns="http://www.w3.org/2000/svg"
   xmlns:svg="http://www.w3.org/2000/svg">
  <sodipodi:namedview
     id="namedview1997"
     pagecolor="#ffffff"
     bordercolor="#000000"
     borderopacity="0.25"
     inkscape:showpageshadow="2"
     inkscape:pageopacity="0.0"
     inkscape:pagecheckerboard="0"
     inkscape:deskcolor="#d1d1d1"
     inkscape:document-units="mm"
     showgrid="false"
     inkscape:zoom="0.74564394"
     inkscape:cx="25.481331"
     inkscape:cy="60.350521"
     inkscape:window-width="1920"
     inkscape:window-height="1003"
     inkscape:window-x="0"
     inkscape:window-y="0"
     inkscape:window-maximized="1"
     inkscape:current-layer="layer1" />
  <defs
     id="defs1992" />
  <g
     inkscape:label="Слой 1"
     inkscape:groupmode="layer"
     id="layer1"
     transform="translate(-45.148087,-132.85934)">
    <rect
       style="font-variation-settings:normal;opacity:0.99;fill:#808080;fill-opacity:1;stroke:none;stroke-width:10;stroke-linecap:round;stroke-linejoin:round;stroke-miterlimit:4;stroke-dasharray:none;stroke-dashoffset:0;stroke-opacity:1;stop-color:#000000"
       id="rect1651"
       width="106.28447"
       height="52.926476"
       x="45.148087"
       y="132.85934"
       ry="14.964116" />
    <path
       id="path1827"
       style="font-variation-settings:normal;opacity:0.99;fill:#000000;fill-opacity:1;stroke:none;stroke-width:15.2276;stroke-linecap:round;stroke-linejoin:round;stroke-miterlimit:4;stroke-dasharray:none;stroke-dashoffset:0;stroke-opacity:1;stop-color:#000000"
       d="m 69.854849,145.06661 c -0.49199,0.0883 -1.3956,0.4436 -2.85632,1.06701 -0.99731,0.37633 -1.9768,0.64696 -3.30267,0.97999 -0.94827,0.23819 -1.75776,0.43434 -2.60598,0.68406 -1.64674,0.44918 -2.94383,0.91121 -3.59355,1.27998 -0.16266,0.076 -0.28552,0.16165 -0.3625,0.25839 -8.2e-4,0.001 -0.003,0.003 -0.004,0.005 -0.0698,0.0732 -0.10099,0.13944 -0.0883,0.19818 -0.0849,0.55764 1.07187,1.24048 2.84647,1.8114 0.94158,0.44599 2.0668,1.00906 3.01228,1.73989 0.45198,0.34938 0.83625,0.71503 1.16601,1.10821 1.30338,2.41922 2.77676,4.1787 3.49666,4.00304 0.0309,-0.01 0.0313,-0.01 0.0312,-0.01 0,0 -4.6e-4,3.3e-4 0.0302,-0.0109 0.67412,-0.29275 0.32807,-2.54056 -0.82679,-5.59242 -0.21115,-0.30459 -0.44478,-0.60043 -0.70118,-0.8847 5.40033,1.10713 14.16256,2.39226 25.13198,3.69357 6.91842,1.05172 15.418881,2.36357 23.572741,4.2678 3.10102,0.7262 6.25022,1.53789 9.22531,2.61965 1.42737,0.5513 2.78014,1.06296 3.88994,1.66466 0.55348,0.30008 1.04611,0.62171 1.46541,0.98363 0.73794,0.64383 1.33178,1.13869 1.62053,1.58722 -0.31692,0.26683 -0.83143,0.53256 -1.45431,0.85989 -2.27697,1.12227 -5.05974,1.74532 -7.84676,2.34793 -3.81274,0.79441 -7.70779,1.33139 -11.31077,1.77244 -8.55704,1.04544 -18.616581,1.80714 -23.788211,2.28632 -7.33922,0.57209 -11.61977,1.27384 -11.62259,2.04458 l -7.9e-4,1.2e-4 c -0.003,0.77084 4.27395,1.50421 11.63743,2.13079 5.95155,0.42043 14.722001,0.69433 24.368251,0.11824 3.74277,-0.2223 7.84555,-0.58702 12.03851,-1.2922 2.96505,-0.47495 6.31197,-1.17416 9.64702,-2.64217 1.13481,-0.47575 2.40761,-1.20855 3.66519,-2.33216 1.03782,-0.85777 1.89547,-2.25936 2.31102,-4.16624 0.18041,-2.03023 -0.25245,-3.70983 -1.06375,-4.88196 -1.04915,-1.65728 -2.27243,-2.86885 -3.42817,-3.74763 -0.83097,-0.64693 -1.68216,-1.20588 -2.5395,-1.69354 -1.7248,-0.98107 -3.45118,-1.66046 -5.03619,-2.18522 -3.45303,-1.21459 -6.9083,-2.05892 -10.17842,-2.73588 -8.75748,-1.81904 -17.377961,-2.73781 -24.551351,-3.3007 -12.11128,-0.56138 -21.57935,-0.71142 -26.91332,-0.41069 1.02022,-0.30486 1.92804,-0.67254 2.73757,-1.12527 1.62606,-0.85177 2.79747,-2.18641 2.5987,-2.45574 -0.0265,-0.0254 -0.0267,-0.0238 -0.0267,-0.0238 3e-5,2e-5 -1.5e-4,-1.8e-4 -0.031,-0.0199 -0.078,-0.0299 -0.19591,-0.0301 -0.35991,-7.1e-4 z" />
  </g>
</svg>
